<svg version="1.1" id="Layer_1" xmlns="http://www.w3.org/2000/svg" xmlns:xlink="http://www.w3.org/1999/xlink" x="0px" y="0px"
	 width="100%" viewBox="0 0 480 480" enable-background="new 0 0 480 480" xml:space="preserve">
<path fill="#000000" opacity="1.000000" stroke="none" 
	d="
M235.957153,393.969421 
	C223.113831,377.452942 210.533432,361.187195 197.886932,344.973022 
	C188.094925,332.418610 178.216812,319.931366 168.385086,307.407867 
	C166.368729,304.839417 165.587387,301.996582 165.595825,298.643616 
	C165.691544,260.647095 165.325455,222.645309 165.894104,184.657059 
	C166.028488,175.678909 162.863831,169.168747 157.635666,162.664337 
	C147.656616,150.249313 137.941833,137.621246 128.163086,125.046051 
	C120.428009,115.098946 112.820381,105.052193 105.028755,95.149948 
	C102.653168,92.130867 101.539032,89.007889 101.584724,85.105415 
	C101.756454,70.442017 101.637032,55.775345 101.670822,41.110004 
	C101.674942,39.322979 101.284622,37.461288 102.264854,35.671894 
	C104.662849,35.526363 105.739616,37.401180 106.886093,38.895584 
	C122.916595,59.790932 138.845490,80.764328 154.902847,101.638931 
	C167.722076,118.303955 180.621078,134.908813 193.641220,151.416916 
	C195.786819,154.137299 196.379684,156.910629 196.375763,160.178680 
	C196.330490,197.842102 196.592453,235.508362 196.164627,273.166962 
	C196.064667,281.964508 198.220337,288.912659 203.606400,295.896606 
	C216.452881,312.554291 228.577606,329.772125 240.835922,346.876892 
	C243.168823,350.132111 244.497574,349.832764 246.665298,346.816559 
	C256.143036,333.628998 265.788635,320.562225 275.343323,307.429810 
	C279.930725,301.124664 284.431427,294.756439 289.013092,288.447083 
	C290.707153,286.114197 290.663055,283.482208 290.662262,280.799255 
	C290.650940,242.635834 290.896698,204.469757 290.469818,166.311157 
	C290.381531,158.418289 292.705750,152.432480 297.425293,146.456299 
	C313.433472,126.185783 329.096680,105.643089 344.927979,85.232544 
	C357.515900,69.003555 370.154694,52.814072 382.785278,36.618248 
	C383.156860,36.141788 383.690186,35.791466 384.222717,35.315659 
	C385.973053,36.976231 385.302795,38.908237 385.311096,40.603268 
	C385.376343,53.935150 384.807587,67.297615 385.548218,80.588577 
	C386.003967,88.766693 383.006317,94.743019 378.240967,100.815521 
	C359.915741,124.167267 341.912445,147.771469 323.634216,171.160492 
	C321.682526,173.657898 321.326141,176.112183 321.328400,178.991135 
	C321.359344,218.654404 321.266266,258.318115 321.459473,297.980469 
	C321.482208,302.656067 320.080994,306.194275 317.298431,309.722565 
	C303.637726,327.044373 290.104828,344.467041 276.541656,361.865662 
	C266.549683,374.683258 256.592682,387.528168 246.578308,400.328186 
	C245.783859,401.343628 244.662491,402.103302 243.337112,403.304382 
	C240.842911,400.141205 238.517258,397.191803 235.957153,393.969421 
z"/>
<path fill="#000000" opacity="1.000000" stroke="none" 
	d="
M375.348663,145.013275 
	C375.348633,155.823929 375.179291,166.140427 375.404846,176.448318 
	C375.566925,183.853806 373.842133,190.228973 368.895721,196.078064 
	C358.744934,208.081238 349.091248,220.504501 339.209320,232.735779 
	C338.282440,233.882996 337.304840,235.042130 335.728882,235.550980 
	C333.942322,234.143890 334.712616,232.170166 334.703247,230.490997 
	C334.628815,217.184555 335.024719,203.863113 334.501770,190.576752 
	C334.241302,183.959290 336.166199,178.757996 340.133698,173.736618 
	C350.586823,160.506866 360.832275,147.113037 371.159821,133.784058 
	C371.889526,132.842285 372.693878,132.032684 374.589539,132.132401 
	C376.098541,136.068985 375.011414,140.368530 375.348663,145.013275 
z"/>
<path fill="#000000" opacity="1.000000" stroke="none" 
	d="
M147.489746,231.507675 
	C136.230759,217.573120 125.242760,203.881302 114.206474,190.228531 
	C113.204758,188.989319 112.673660,187.720367 112.676407,186.150772 
	C112.706711,168.848145 112.717529,151.545471 112.762604,134.242889 
	C112.764206,133.628403 113.066063,133.014709 113.320717,132.048950 
	C117.477943,133.452454 118.844658,137.353302 121.044594,140.111038 
	C131.052750,152.656769 140.671921,165.512283 150.491592,178.209534 
	C151.669144,179.732147 152.357712,181.243134 152.352646,183.189682 
	C152.309769,199.660950 152.325851,216.132370 152.290665,232.603668 
	C152.288696,233.525131 151.990326,234.445953 151.818649,235.431625 
	C149.288071,235.127274 149.284485,232.629425 147.489746,231.507675 
z"/>
<path fill="#000000" opacity="1.000000" stroke="none" 
	d="
M314.323486,444.642395 
	C314.447693,450.178497 310.904907,451.361603 307.109009,451.792389 
	C305.443634,454.289948 307.695007,456.173859 307.491241,458.265228 
	C301.624359,460.513794 299.911743,459.934448 297.631653,454.531311 
	C296.741791,452.422638 295.555725,451.199249 293.184174,451.382538 
	C292.521851,451.433685 291.851593,451.384186 291.185028,451.377899 
	C277.654388,451.250153 277.653229,451.250061 277.652100,437.465271 
	C277.651703,432.798920 277.785095,428.128143 277.623230,423.467560 
	C277.489685,419.622406 279.463806,417.799316 282.952942,417.739197 
	C291.449615,417.592712 299.951263,417.626343 308.449463,417.719757 
	C312.570709,417.765076 314.347992,420.204651 314.335449,424.183411 
	C314.314484,430.849579 314.329376,437.515900 314.323486,444.642395 
M300.837921,441.689636 
	C301.707550,443.506927 303.200775,443.988892 304.981140,443.378265 
	C306.791046,442.757507 306.620453,441.080322 306.632812,439.597290 
	C306.660461,436.275299 306.509583,432.945496 306.689209,429.632843 
	C306.868011,426.335297 305.435577,425.076538 302.266357,425.343781 
	C300.947235,425.455048 299.610229,425.353149 298.281342,425.349823 
	C285.156006,425.317169 285.156036,425.317261 285.350433,438.505859 
	C285.432037,444.041138 286.908325,444.871796 292.536133,442.333496 
	C292.093201,439.630432 290.483948,436.340363 294.868073,435.167755 
	C299.771912,433.856140 298.654968,438.598602 300.282104,440.580780 
	C300.382690,440.703278 300.411530,440.884705 300.837921,441.689636 
z"/>
<path fill="#000000" opacity="1.000000" stroke="none" 
	d="
M68.596985,418.080750 
	C72.595955,417.046326 74.618805,418.222778 76.135994,421.913818 
	C77.786972,425.930359 78.306213,430.530518 81.402718,434.544067 
	C83.970963,430.652252 84.379745,426.626251 85.657135,422.947266 
	C87.645355,417.220947 88.548752,416.703766 95.252388,418.715668 
	C93.590057,423.877563 91.991119,429.063202 90.244957,434.198761 
	C88.698387,438.747314 86.921082,443.217438 85.380135,447.767731 
	C84.679596,449.836426 83.795410,451.257690 81.299927,451.368011 
	C78.579865,451.488342 77.483810,450.024597 76.686241,447.776276 
	C74.942650,442.861084 73.082161,437.987335 71.073715,432.568665 
	C67.423370,437.851227 66.930977,443.687286 64.480530,448.725800 
	C63.499138,450.743683 62.206207,451.344940 60.200733,451.335663 
	C58.402157,451.327332 57.067757,450.986694 56.381634,448.975189 
	C52.911194,438.801025 49.325932,428.665985 45.769588,418.484741 
	C53.759155,416.475433 54.660412,416.934845 57.029213,423.881653 
	C58.258385,427.486328 59.505066,431.085083 60.926018,435.216095 
	C64.818810,429.819092 64.854797,423.305206 68.596985,418.080750 
z"/>
<path fill="#000000" opacity="1.000000" stroke="none" 
	d="
M231.713501,443.266113 
	C234.863892,439.119324 236.859253,438.957855 239.650574,442.351868 
	C240.509750,443.396454 241.531876,443.624969 242.718674,443.628448 
	C246.546494,443.639740 250.374359,443.636719 254.202209,443.630768 
	C256.074554,443.627869 257.516541,443.086731 257.507416,440.848877 
	C257.497589,438.443665 255.794724,438.345184 254.045349,438.341034 
	C249.884460,438.331207 245.720093,438.438385 241.563431,438.303833 
	C234.429626,438.072968 232.727188,436.289276 232.665054,429.333862 
	C232.654648,428.168884 232.652878,427.003693 232.660141,425.838715 
	C232.702682,419.015106 234.010574,417.689331 240.798187,417.667938 
	C246.789841,417.649048 252.784180,417.771942 258.772400,417.627747 
	C262.816406,417.530365 264.403259,420.011536 265.158539,423.300568 
	C265.565277,425.071960 265.636414,427.105865 262.928894,427.397766 
	C261.052124,427.600159 258.719299,429.916870 257.656738,426.325470 
	C257.096008,424.430267 255.640564,424.361298 254.097748,424.359375 
	C250.769058,424.355255 247.440353,424.352509 244.111664,424.356750 
	C242.167923,424.359222 240.308701,424.496735 240.435211,427.184937 
	C240.546158,429.542084 242.242935,429.645721 243.990005,429.647644 
	C248.150894,429.652252 252.312744,429.592102 256.472473,429.661560 
	C263.423584,429.777618 265.305939,431.705200 265.345276,438.571411 
	C265.418549,451.369659 265.418518,451.368896 252.797470,451.363922 
	C248.303680,451.362152 243.809464,451.404633 239.316208,451.356201 
	C233.126816,451.289429 231.876297,450.002014 231.713501,443.266113 
z"/>
<path fill="#000000" opacity="1.000000" stroke="none" 
	d="
M199.265778,428.240021 
	C202.936951,442.240723 194.548599,452.324158 181.896347,451.445984 
	C175.787308,451.022003 169.624481,451.372833 162.773117,451.372833 
	C162.773117,440.655121 162.762787,430.403961 162.785721,420.152893 
	C162.788712,418.818542 163.536240,417.803650 164.891830,417.843506 
	C173.481171,418.096100 182.169281,416.308319 190.643997,418.903961 
	C195.105606,420.270477 198.017853,423.260437 199.265778,428.240021 
M190.631454,430.697845 
	C189.936752,427.595703 188.012390,425.862152 184.865021,425.398102 
	C172.363052,423.554840 171.327850,424.421844 171.350006,436.833954 
	C171.352356,438.158813 171.365051,439.483795 171.389679,440.808411 
	C171.423035,442.601898 172.321884,443.617706 174.139618,443.597015 
	C177.755020,443.555786 181.375656,444.037445 184.934158,442.677765 
	C190.018723,440.734985 192.042038,437.056915 190.631454,430.697845 
z"/>
<path fill="#000000" opacity="1.000000" stroke="none" 
	d="
M381.648926,422.578613 
	C383.006714,419.255920 384.600037,417.317505 388.416382,417.527313 
	C391.982178,417.723358 393.782776,419.354889 395.216858,422.301758 
	C398.998779,430.072845 402.952209,437.760345 406.812317,445.493622 
	C407.615295,447.102356 408.686493,448.655029 408.372986,450.873077 
	C403.869507,451.600189 399.434235,452.708710 397.317291,446.781830 
	C396.618683,444.825775 394.841370,444.307129 392.829071,444.351166 
	C389.669373,444.420258 386.504791,444.432037 383.346313,444.336151 
	C381.102631,444.268066 379.298584,445.025055 378.508118,447.103668 
	C376.465790,452.474030 372.500336,451.751831 367.545532,450.601898 
	C372.304749,441.163055 376.900146,432.049103 381.648926,422.578613 
M390.542084,436.391510 
	C392.902069,432.615234 389.479309,430.799530 388.004517,427.699554 
	C386.321869,430.628510 384.438019,432.714264 384.514099,435.767487 
	C386.266388,437.043243 388.094940,436.529541 390.542084,436.391510 
z"/>
<path fill="#000000" opacity="1.000000" stroke="none" 
	d="
M335.348633,427.037354 
	C335.349213,431.198364 335.341644,434.864899 335.354980,438.531342 
	C335.358643,439.529755 335.016693,440.886871 335.528137,441.469299 
	C339.495728,445.987854 344.762848,442.830383 349.404419,443.547119 
	C352.072510,443.959137 352.662567,441.923859 352.651642,439.648071 
	C352.624512,433.981873 352.726715,428.314301 352.637207,422.649475 
	C352.589691,419.640625 352.943329,417.532501 356.851288,417.575256 
	C360.411041,417.614166 361.456909,419.046814 361.386475,422.385529 
	C361.231812,429.715240 361.410736,437.051392 361.317139,444.383148 
	C361.249634,449.672974 359.660950,451.270355 354.450684,451.338135 
	C347.618835,451.427032 340.784851,451.384491 333.951996,451.350494 
	C329.756409,451.329620 327.501984,449.519501 327.608398,444.959198 
	C327.783356,437.463654 327.692047,429.960815 327.640381,422.461578 
	C327.621490,419.718414 327.811523,417.606201 331.530792,417.630676 
	C335.275635,417.655365 335.434387,419.842407 335.349274,422.543274 
	C335.307312,423.875153 335.346100,425.209564 335.348633,427.037354 
z"/>
<path fill="#000000" opacity="1.000000" stroke="none" 
	d="
M408.263916,425.054657 
	C405.477478,419.035370 406.265015,417.690918 412.210571,417.662659 
	C420.365692,417.623871 428.521606,417.703674 436.676331,417.633148 
	C439.546387,417.608337 441.434875,418.095184 441.375366,421.683868 
	C441.319366,425.062347 439.495544,425.390167 436.869904,425.362122 
	C427.509888,425.262115 428.399963,424.523773 428.350525,434.002808 
	C428.327087,438.496429 428.229797,442.992493 428.341980,447.483063 
	C428.421265,450.657745 426.776337,451.382019 423.990295,451.393280 
	C421.198517,451.404572 419.576324,450.690613 419.641754,447.507507 
	C419.754578,442.017700 419.417328,436.510101 419.725189,431.035614 
	C419.964447,426.780487 418.754456,424.722717 414.195465,425.301361 
	C412.402802,425.528931 410.544373,425.238678 408.263916,425.054657 
z"/>
<path fill="#000000" opacity="1.000000" stroke="none" 
	d="
M124.669525,446.867859 
	C124.660995,439.049042 124.590256,431.715240 124.689384,424.383728 
	C124.730965,421.308807 123.443497,417.466766 129.131012,417.569336 
	C134.436325,417.664978 133.259476,421.211609 133.320663,424.156403 
	C133.421036,428.987396 133.582855,433.836578 133.279694,438.650452 
	C133.021622,442.748260 134.696777,443.891724 138.527481,443.710785 
	C143.817368,443.460846 149.127930,443.648071 154.389954,443.648071 
	C155.673401,446.197998 155.232773,448.325562 155.256821,451.373138 
	C149.332413,451.373138 143.586517,451.374420 137.840622,451.372620 
	C134.840836,451.371704 131.837982,451.279480 128.842117,451.386078 
	C125.955956,451.488861 124.377724,450.442657 124.669525,446.867859 
z"/>
<path fill="#000000" opacity="1.000000" stroke="none" 
	d="
M111.348236,434.001160 
	C111.339470,438.808594 111.267731,443.118134 111.344772,447.425018 
	C111.391533,450.039062 110.551994,451.400513 107.654915,451.374237 
	C105.009239,451.350250 103.641762,450.557831 103.663773,447.697784 
	C103.731346,438.915955 103.736855,430.132721 103.649292,421.351227 
	C103.620720,418.486572 104.950134,417.665710 107.601067,417.661194 
	C110.418106,417.656372 111.413391,418.893494 111.351273,421.571777 
	C111.259087,425.546478 111.340469,429.525177 111.348236,434.001160 
z"/>
</svg>